<svg id="Capa_1" enable-background="new 0 0 512 512" height="512" viewBox="0 0 512 512" width="512" xmlns="http://www.w3.org/2000/svg"><g><path d="m493.431 50.675h-351.183c-4.312 0-8.231-2.504-10.044-6.417l-14.055-30.342c-1.812-3.913-5.732-6.416-10.044-6.416h-89.536c-6.113 0-11.069 4.956-11.069 11.069v474.862c0 6.113 4.956 11.069 11.069 11.069h29.16l456.771-415.178v-27.578c0-6.114-4.956-11.069-11.069-11.069z" fill="#9dc6fb"/><path d="m90.649 13.916 14.055 30.342c1.812 3.913 5.732 6.417 10.044 6.417h27.5c-4.312 0-8.231-2.504-10.044-6.417l-14.055-30.342c-1.812-3.913-5.732-6.416-10.044-6.416h-27.5c4.312 0 8.231 2.504 10.044 6.416z" fill="#80b4fb"/><path d="m493.431 50.675h-27.5c6.113 0 11.069 4.956 11.069 11.069v49.097l27.5-21.519v-27.578c0-6.114-4.956-11.069-11.069-11.069z" fill="#80b4fb"/><path d="m493.431 504.5h-445.702v-399.44c0-8.692 7.046-15.738 15.738-15.738h441.033v404.109c0 6.113-4.956 11.069-11.069 11.069z" fill="#f9f6f9"/><path d="m477 89.322v404.109c0 6.113-4.956 11.069-11.069 11.069h27.5c6.113 0 11.069-4.956 11.069-11.069v-404.109z" fill="#dddaec"/><g><path d="m43.361 38.474c-4.142 0-7.5 3.357-7.5 7.5s3.358 7.5 7.5 7.5h42.597c4.142 0 7.5-3.357 7.5-7.5s-3.358-7.5-7.5-7.5z"/><path d="m493.431 43.175h-93.719c-4.143 0-7.5 3.357-7.5 7.5s3.357 7.5 7.5 7.5h93.719c1.968 0 3.568 1.601 3.568 3.568v20.078h-433.532c-12.813 0-23.238 10.425-23.238 23.238v316.107c0 4.143 3.358 7.5 7.5 7.5s7.5-3.357 7.5-7.5v-316.106c0-4.543 3.695-8.238 8.238-8.238h433.533v396.609c0 1.968-1.601 3.569-3.568 3.569h-438.203v-45.846c0-4.143-3.358-7.5-7.5-7.5s-7.5 3.357-7.5 7.5v45.846h-21.66c-1.968 0-3.569-1.602-3.569-3.569v-474.863c0-1.967 1.601-3.568 3.569-3.568h89.536c1.385 0 2.657.812 3.239 2.068l14.055 30.341c3.028 6.54 9.642 10.766 16.849 10.766h227.478c4.143 0 7.5-3.357 7.5-7.5s-3.357-7.5-7.5-7.5h-227.478c-1.385 0-2.656-.812-3.238-2.069l-14.056-30.343c-3.029-6.538-9.643-10.763-16.849-10.763h-89.536c-10.239 0-18.569 8.33-18.569 18.568v474.862c0 10.24 8.33 18.57 18.569 18.57h474.862c10.239 0 18.569-8.33 18.569-18.569v-431.688c0-10.238-8.33-18.568-18.569-18.568z"/><path d="m147.123 223.244c-1.361-3.309-4.55-5.444-8.126-5.444h-.01c-3.58.004-6.769 2.148-8.123 5.462-.023.056-.045.112-.066.169l-21.32 55.977c-1.474 3.871.468 8.204 4.339 9.679s8.204-.468 9.678-4.34l3.47-9.11h23.901l3.43 9.09c1.134 3.003 3.987 4.854 7.019 4.854.879 0 1.775-.156 2.646-.485 3.875-1.462 5.832-5.789 4.369-9.665l-21.126-55.979c-.027-.071-.053-.14-.081-.208zm-14.446 37.392 6.293-16.521 6.235 16.521z"/><path d="m138.79 128.653c-19.789 0-35.889 16.1-35.889 35.889s16.1 35.889 35.889 35.889c7.302 0 14.098-2.197 19.772-5.958l3.532 3.532c1.464 1.464 3.384 2.196 5.303 2.196s3.839-.732 5.303-2.196c2.929-2.93 2.929-7.678 0-10.607l-3.63-3.63c3.544-5.562 5.608-12.156 5.608-19.226 0-19.789-16.099-35.889-35.888-35.889zm0 56.778c-11.518 0-20.889-9.371-20.889-20.889s9.371-20.889 20.889-20.889 20.889 9.371 20.889 20.889c0 2.897-.595 5.657-1.666 8.168l-3.476-3.476c-2.929-2.928-7.678-2.928-10.606 0-2.929 2.93-2.929 7.678 0 10.607l3.632 3.631c-2.672 1.244-5.638 1.959-8.773 1.959z"/><path d="m205.842 158.929h3.547c4.142 0 7.5-3.357 7.5-7.5s-3.358-7.5-7.5-7.5h-3.547c-4.142 0-7.5 3.357-7.5 7.5s3.358 7.5 7.5 7.5z"/><path d="m205.842 185.155h3.547c4.142 0 7.5-3.357 7.5-7.5s-3.358-7.5-7.5-7.5h-3.547c-4.142 0-7.5 3.357-7.5 7.5s3.358 7.5 7.5 7.5z"/><path d="m245.826 172.042h196.002c4.143 0 7.5-3.357 7.5-7.5s-3.357-7.5-7.5-7.5h-196.002c-4.142 0-7.5 3.357-7.5 7.5s3.358 7.5 7.5 7.5z"/><path d="m205.842 248.075h3.547c4.142 0 7.5-3.357 7.5-7.5s-3.358-7.5-7.5-7.5h-3.547c-4.142 0-7.5 3.357-7.5 7.5s3.358 7.5 7.5 7.5z"/><path d="m205.842 274.302h3.547c4.142 0 7.5-3.357 7.5-7.5s-3.358-7.5-7.5-7.5h-3.547c-4.142 0-7.5 3.357-7.5 7.5s3.358 7.5 7.5 7.5z"/><path d="m245.826 243.015h196.002c4.143 0 7.5-3.357 7.5-7.5s-3.357-7.5-7.5-7.5h-196.002c-4.142 0-7.5 3.357-7.5 7.5s3.358 7.5 7.5 7.5z"/><path d="m245.826 279.362h135.517c4.143 0 7.5-3.357 7.5-7.5s-3.357-7.5-7.5-7.5h-135.517c-4.142 0-7.5 3.357-7.5 7.5s3.358 7.5 7.5 7.5z"/><path d="m147.122 398.831c-1.362-3.306-4.55-5.44-8.125-5.44h-.012c-3.58.005-6.768 2.148-8.122 5.462-.023.056-.045.112-.066.169l-21.32 55.978c-1.474 3.87.468 8.203 4.339 9.678 3.871 1.474 8.204-.469 9.678-4.34l3.47-9.11h23.901l3.43 9.09c1.134 3.003 3.987 4.854 7.019 4.854.879 0 1.775-.156 2.646-.485 3.875-1.462 5.832-5.789 4.369-9.665l-21.126-55.98c-.026-.072-.053-.142-.081-.211zm-14.445 37.396 6.293-16.521 6.235 16.521z"/><path d="m138.79 376.021c7.302 0 14.098-2.197 19.772-5.958l3.532 3.532c1.464 1.464 3.384 2.196 5.303 2.196s3.839-.732 5.303-2.196c2.929-2.93 2.929-7.678 0-10.607l-3.63-3.63c3.544-5.562 5.608-12.156 5.608-19.226 0-19.789-16.1-35.889-35.889-35.889s-35.889 16.1-35.889 35.889 16.101 35.889 35.89 35.889zm0-56.777c11.518 0 20.889 9.371 20.889 20.889 0 2.897-.595 5.657-1.666 8.167l-3.476-3.476c-2.928-2.927-7.677-2.929-10.606 0-2.929 2.93-2.929 7.678 0 10.607l3.632 3.632c-2.672 1.243-5.637 1.958-8.773 1.958-11.518 0-20.889-9.371-20.889-20.889s9.371-20.888 20.889-20.888z"/><path d="m205.842 334.52h3.547c4.142 0 7.5-3.357 7.5-7.5s-3.358-7.5-7.5-7.5h-3.547c-4.142 0-7.5 3.357-7.5 7.5s3.358 7.5 7.5 7.5z"/><path d="m205.842 360.746h3.547c4.142 0 7.5-3.357 7.5-7.5s-3.358-7.5-7.5-7.5h-3.547c-4.142 0-7.5 3.357-7.5 7.5s3.358 7.5 7.5 7.5z"/><path d="m245.826 347.633h196.002c4.143 0 7.5-3.357 7.5-7.5s-3.357-7.5-7.5-7.5h-196.002c-4.142 0-7.5 3.357-7.5 7.5s3.358 7.5 7.5 7.5z"/><path d="m205.842 423.666h3.547c4.142 0 7.5-3.357 7.5-7.5s-3.358-7.5-7.5-7.5h-3.547c-4.142 0-7.5 3.357-7.5 7.5s3.358 7.5 7.5 7.5z"/><path d="m205.842 449.893h3.547c4.142 0 7.5-3.357 7.5-7.5s-3.358-7.5-7.5-7.5h-3.547c-4.142 0-7.5 3.357-7.5 7.5s3.358 7.5 7.5 7.5z"/><path d="m245.826 418.605h196.002c4.143 0 7.5-3.357 7.5-7.5s-3.357-7.5-7.5-7.5h-196.002c-4.142 0-7.5 3.357-7.5 7.5s3.358 7.5 7.5 7.5z"/><path d="m245.826 454.953h135.517c4.143 0 7.5-3.357 7.5-7.5s-3.357-7.5-7.5-7.5h-135.517c-4.142 0-7.5 3.357-7.5 7.5s3.358 7.5 7.5 7.5z"/></g></g></svg>